<?xml version="1.0" encoding="UTF-8" standalone="no" ?>
<!DOCTYPE svg PUBLIC "-//W3C//DTD SVG 1.1//EN" "http://www.w3.org/Graphics/SVG/1.1/DTD/svg11.dtd">
<svg xmlns="http://www.w3.org/2000/svg" xmlns:xlink="http://www.w3.org/1999/xlink" version="1.1" width="1280" height="1024" viewBox="0 0 1280 1024" xml:space="preserve">
<desc>Created with Fabric.js 3.6.3</desc>
<defs>
</defs>
<g transform="matrix(1.9662058371735787 0 0 1.9662058371735787 640.2456813819576 512.1966205837173)" id="background-logo"  >
<rect style="stroke: none; stroke-width: 1; stroke-dasharray: none; stroke-linecap: butt; stroke-dashoffset: 0; stroke-linejoin: miter; stroke-miterlimit: 4; fill: rgb(21,21,168); fill-rule: nonzero; opacity: 1;"  paint-order="stroke"  x="-325" y="-260" rx="0" ry="0" width="650" height="520" />
</g>
<g transform="matrix(1.9699870022450665 0 0 1.9699870022450665 640.2456813819576 412.8895316873454)" id="logo-logo"  >
<g style=""  paint-order="stroke"   >
		<g transform="matrix(0.7674416621278392 0 0 -0.7674416621278393 0 -63.28829194216334)"  >
<linearGradient id="SVGID_293627" gradientUnits="userSpaceOnUse" gradientTransform="matrix(1 0 0 1 511.2819999999999 308.9250000000002)"  x1="0" y1="0" x2="0" y2="208">
<stop offset="0%" style="stop-color:rgb(23,234,217);stop-opacity: 1"/>
<stop offset="100%" style="stop-color:rgb(96,120,234);stop-opacity: 1"/>
</linearGradient>
<path style="stroke: none; stroke-width: 1; stroke-dasharray: none; stroke-linecap: butt; stroke-dashoffset: 0; stroke-linejoin: miter; stroke-miterlimit: 4; fill: url(#SVGID_293627); fill-rule: nonzero; opacity: 1;"  paint-order="stroke"  transform=" translate(-681.4255, -412.9675000000001)" d="M 649.218 508.38 L 543.489 447.338 C 523.56 435.83 511.282 414.566 511.282 391.552 v 0 v -82.571 c 19.679 2.039 38.104 6.897 55.02 13.435 v 0 c -0.673 2.188 -1.291 4.396 -1.818 6.631 v 0 c -3.329 14.091 -2.582 23.45 -2.07 26.968 v 0 l 0.008 0.083 c 1.796 18.595 9.366 35.871 21.317 48.649 v 0 c 13.04 13.943 30.48 21.621 49.104 21.621 v 0 c 16.806 0 32.313 -5.946 44.845 -17.193 v 0 c 1.906 -1.712 4.532 -1.769 6.384 -0.145 v 0 c 12.748 11.178 29.012 17.334 45.794 17.334 v 0 c 18.624 0 36.063 -7.679 49.104 -21.621 v 0 c 11.951 -12.778 19.521 -30.054 21.318 -48.646 v 0 l 0.009 -0.092 c 0.515 -3.591 1.241 -12.937 -2.072 -26.964 v 0 c -0.532 -2.254 -1.152 -4.479 -1.829 -6.685 v 0 c 18.227 -7.062 36.642 -11.552 55.173 -13.431 v 0 v 82.627 c 0 23.014 -12.277 44.278 -32.208 55.786 v 0 L 713.633 508.38 c -9.965 5.754 -21.086 8.63 -32.208 8.63 v 0 c -11.121 0 -22.242 -2.876 -32.207 -8.63" stroke-linecap="round" />
</g>
		<g transform="matrix(0.7674416621278392 0 0 -0.7674416621278393 0 47.807746524343855)"  >
<linearGradient id="SVGID_293628" gradientUnits="userSpaceOnUse" gradientTransform="matrix(1 0 0 1 511.28200000000004 144.00975)"  x1="0" y1="0" x2="0" y2="77">
<stop offset="0%" style="stop-color:rgb(66,230,149);stop-opacity: 1"/>
<stop offset="100%" style="stop-color:rgb(59,178,184);stop-opacity: 1"/>
</linearGradient>
<path style="stroke: none; stroke-width: 1; stroke-dasharray: none; stroke-linecap: butt; stroke-dashoffset: 0; stroke-linejoin: miter; stroke-miterlimit: 4; fill: url(#SVGID_293628); fill-rule: nonzero; opacity: 1;"  paint-order="stroke"  transform=" translate(-681.4254999999999, -268.22387499999996)" d="m 596.195 352.84 c -0.053 -0.566 -0.118 -1.13 -0.202 -1.693 v 0 c -0.006 -0.043 -0.636 -5.068 1.471 -14.108 v 0 c 19.617 10.858 36.338 23.294 49.593 34.628 v 0 c 4.537 -5.311 12.477 -14.111 23.53 -24.559 v 0 c -7.465 -6.454 -15.935 -13.242 -25.366 -19.985 v 0 C 602.756 296.762 557.032 279.036 511.282 274.93 v 0 v -5.463 c 0 -23.013 12.278 -44.278 32.207 -55.785 v 0 L 649.218 152.64 c 19.93 -11.507 44.485 -11.507 64.415 0 v 0 l 105.728 61.042 c 19.931 11.507 32.208 32.772 32.208 55.785 v 0 v 5.465 c -23.527 2.114 -47.043 7.841 -70.116 17.027 v 0 c -4.753 -6.736 -10.31 -13.011 -16.607 -18.718 v 0 l -0.099 -0.088 l -58.314 -52.029 c -7.307 -6.52 -16.44 -9.775 -25.57 -9.776 v 0 c -9.237 0 -18.471 3.333 -25.81 9.993 v 0 l -57.198 51.912 c -2.441 2.21 -4.758 4.518 -6.973 6.894 v 0 c 10.945 4.546 21.776 9.816 32.44 15.811 v 0 l 54.534 -49.492 c 1.701 -1.543 4.276 -1.554 5.99 -0.025 v 0 l 58.259 51.98 c 11.682 10.603 19.668 23.886 23.099 38.416 v 0 c 2.167 9.177 1.518 14.272 1.51 14.321 v 0 c -0.077 0.51 -0.144 1.094 -0.199 1.68 v 0 c -1.901 19.675 -15.099 39.596 -36.649 39.596 v 0 c -8.548 0 -16.867 -3.166 -23.425 -8.914 v 0 c -0.664 -0.584 -1.36 -1.109 -2.053 -1.638 v 0 c 8.979 -8.461 20.355 -18.2 33.796 -27.742 v 0 c 4.57 -3.245 9.158 -6.314 13.761 -9.219 v 0 c -0.181 -1.323 -0.458 -2.896 -0.894 -4.742 v 0 v -0.001 c -2.246 -9.515 -6.976 -18.405 -13.802 -26.037 v 0 c -6.607 4.036 -13.152 8.359 -19.619 12.982 v 0 c -31.741 22.693 -52.728 45.947 -60.304 54.921 v 0 c -0.781 0.601 -1.556 1.212 -2.301 1.88 v 0 c -6.207 5.57 -13.877 8.514 -22.182 8.514 v 0 c -21.55 0 -34.748 -19.921 -36.648 -39.598" stroke-linecap="round" />
</g>
</g>
</g>
<g transform="matrix(1.9699870022450665 0 0 1.9699870022450665 641.9463342237395 805.4687910732448)" id="text-logo-path"  >
<linearGradient id="SVGID_28_293630" gradientUnits="userSpaceOnUse" gradientTransform="matrix(1 0 0 1 3.8799999999999955 -55.98)"  x1="0" y1="0" x2="0" y2="77">
<stop offset="0%" style="stop-color:rgb(66,230,149);stop-opacity: 1"/>
<stop offset="100%" style="stop-color:rgb(59,178,184);stop-opacity: 1"/>
</linearGradient>
<path style="stroke: none; stroke-width: 0; stroke-dasharray: none; stroke-linecap: butt; stroke-dashoffset: 0; stroke-linejoin: miter; stroke-miterlimit: 4; fill: url(#SVGID_28_293630); fill-rule: nonzero; opacity: 1;"  paint-order="stroke"  transform=" translate(-84.95, 27.66)" d="M 15.31 0 L 3.88 0 L 3.88 -55.98 L 15.31 -55.98 L 15.31 -30.25 Q 18.99 -34.53 26.36 -43.11 Q 33.73 -51.7 37.39 -55.98 L 37.39 -55.98 L 52.23 -55.98 L 28.02 -28.22 L 54.25 0 L 38.22 0 Q 20.12 -20.72 15.31 -26.16 L 15.31 -26.16 L 15.31 0 Z M 54.65 -19.52 L 54.65 -19.52 Q 54.65 -23.91 56.3 -27.72 Q 57.94 -31.54 60.65 -34.15 Q 63.35 -36.76 66.85 -38.23 Q 70.36 -39.71 74.11 -39.71 L 74.11 -39.71 Q 83.47 -39.71 88.52 -33.54 Q 93.57 -27.36 93.57 -16.4 L 93.57 -16.4 L 65.94 -16.4 Q 66.44 -13.25 68.95 -11.09 Q 71.45 -8.93 74.81 -8.63 L 74.81 -8.63 Q 75.34 -8.57 75.9 -8.57 L 75.9 -8.57 Q 77.93 -8.57 79.85 -9.36 L 79.85 -9.36 Q 82.31 -10.36 83.77 -12.38 L 83.77 -12.38 L 92.87 -10.33 Q 91.94 -8.2 90.54 -6.39 Q 89.15 -4.58 87.03 -2.92 Q 84.9 -1.26 81.76 -0.3 Q 78.63 0.66 74.87 0.66 L 74.87 0.66 Q 71.09 0.66 67.47 -0.76 Q 63.85 -2.19 60.99 -4.73 Q 58.14 -7.27 56.4 -11.14 Q 54.65 -15.01 54.65 -19.52 Z M 66.14 -23.87 L 66.14 -23.87 L 82.74 -23.87 Q 82.48 -26.7 80.1 -28.92 Q 77.73 -31.14 74.31 -31.14 L 74.31 -31.14 Q 71.02 -31.14 68.85 -29.1 Q 66.67 -27.06 66.14 -23.87 Z M 101.04 -28.82 L 95.59 -28.82 L 95.59 -38.15 L 101.04 -38.15 L 101.04 -50.17 L 112.06 -50.17 L 112.06 -38.15 L 119.6 -38.15 L 119.6 -28.82 L 112.06 -28.82 L 112.06 -18.03 Q 112.06 -16.4 112.13 -15.64 L 112.13 -15.64 Q 112.33 -11.16 114.62 -10.46 L 114.62 -10.46 Q 115.31 -10.19 116.09 -10.16 Q 116.88 -10.13 117.75 -10.23 Q 118.63 -10.33 118.9 -10.33 L 118.9 -10.33 L 120.63 -0.66 Q 120.36 -0.66 117.34 -0.23 L 117.34 -0.23 Q 115.28 0.07 113.55 0.07 L 113.55 0.07 Q 112.76 0.07 112.06 0 L 112.06 0 Q 101.67 -1.2 101.17 -13.61 L 101.17 -13.61 Q 101.1 -14.97 101.1 -17.83 L 101.1 -17.83 L 101.04 -28.82 Z M 127.68 -9.65 Q 124.88 -14.31 124.88 -19.52 Q 124.88 -24.74 127.7 -29.4 Q 130.52 -34.07 135.3 -36.89 Q 140.08 -39.71 145.5 -39.71 L 145.5 -39.71 Q 149.58 -39.71 153.4 -38.02 Q 157.22 -36.32 159.96 -33.57 Q 162.7 -30.81 164.36 -27.11 Q 166.02 -23.41 166.02 -19.52 L 166.02 -19.52 Q 166.02 -15.61 164.36 -11.9 Q 162.7 -8.2 159.96 -5.45 Q 157.22 -2.69 153.4 -1.01 Q 149.58 0.66 145.5 0.66 L 145.5 0.66 Q 140.05 0.66 135.27 -2.16 Q 130.49 -4.98 127.68 -9.65 Z M 136.03 -19.52 L 136.03 -19.52 Q 136.07 -15.14 138.72 -12.29 L 138.72 -12.29 Q 141.35 -9.46 145.26 -9.46 L 145.26 -9.46 Q 145.36 -9.46 145.43 -9.46 L 145.43 -9.46 Q 149.51 -9.46 152.19 -12.3 Q 154.86 -15.14 154.86 -19.52 Q 154.86 -23.91 152.19 -26.75 Q 149.51 -29.58 145.43 -29.58 L 145.43 -29.58 Q 141.38 -29.58 138.71 -26.75 Q 136.03 -23.91 136.03 -19.52 Z" stroke-linecap="round" />
</g>
</svg>